# xmcd CD database file
#
# Track frame offsets:
#	150
#	18424
#	40887
#	58033
#	81768
#	101260
#	121770
#	138807
#	163666
#	179413
#	185462
#	204223
#	225862
#
# Disc length: 3104 seconds
#
# Revision: 0
# Processed by: cddbd v1.5.2PL0 Copyright (c) Steve Scherf et al.
# Submitted via: CDex 1.70beta2
#
DISCID=970c1e0d
DTITLE=Lori Jenaire  - Within Reach
DYEAR=2002
DGENRE=Jazz
TTITLE0=Lori Jenaire - If You Were Mine
TTITLE1=Lori Jenaire - The Way You Love Me
TTITLE2=Lori Jenaire - Magic Mona
TTITLE3=Lori Jenaire - Under The Moon And Over The Sky
TTITLE4=Lori Jenaire - For Love's Sake
TTITLE5=Lori Jenaire - You're As Right As Rain
TTITLE6=Lori Jenaire - Keep On
TTITLE7=Lori Jenaire - Anything
TTITLE8=Lori Jenaire - I Do
TTITLE9=Lori Jenaire - Keep On (Reprise)
TTITLE10=Lori Jenaire - Don't Need To Know
TTITLE11=Lori Jenaire - I Wish You Love
TTITLE12=Lori Jenaire - In Gratitude
EXTD=YEAR: 2002
EXTT0=
EXTT1=
EXTT2=
EXTT3=
EXTT4=
EXTT5=
EXTT6=
EXTT7=
EXTT8=
EXTT9=
EXTT10=
EXTT11=
EXTT12=
PLAYORDER=
